<?xml version="1.0" encoding="UTF-8"?>
<svg width="876px" height="233px" viewBox="0 0 876 233" version="1.1" xmlns="http://www.w3.org/2000/svg" xmlns:xlink="http://www.w3.org/1999/xlink">
    <!-- Generator: Sketch 51.2 (57519) - http://www.bohemiancoding.com/sketch -->
    <title>Slice</title>
    <desc>Created with Sketch.</desc>
    <defs></defs>
    <g id="Page-1" stroke="none" stroke-width="1" fill="none" fill-rule="evenodd">
        <g id="TEDx_logo_k_RGB" transform="translate(49.000000, 36.000000)">
            <polygon id="Fill-2" fill="#FF2B06" points="10.9312 152.8955 3.3642 141.9905 10.5752 141.9905 14.6252 147.9995 18.6312 141.9905 25.6192 141.9905 18.0532 152.7615 26.5542 165.0015 19.3442 165.0015 14.5362 157.7475 9.7292 165.0015 2.6522 165.0015"></polygon>
            <path d="M34.029,160.907 L56.507,160.907 L56.507,156.144 L34.029,156.144 L34.029,160.907 Z M34.029,151.382 L56.507,151.382 L56.507,146.619 L34.029,146.619 L34.029,151.382 Z" id="Fill-3" fill="#FFFFFF"></path>
            <path d="M67.41,165.002 L73.73,165.002 L73.73,141.99 L67.41,141.99 L67.41,165.002 Z M67.41,138.43 L73.73,138.43 L73.73,133.222 L67.41,133.222 L67.41,138.43 Z" id="Fill-4" fill="#FFFFFF"></path>
            <g id="Group-49">
                <path d="M77.8242,141.9902 L83.8332,141.9902 L83.8332,145.1952 L83.9672,145.1952 C85.5692,142.6132 88.3282,141.3672 90.9992,141.3672 C97.7202,141.3672 99.4112,145.1502 99.4112,150.8472 L99.4112,165.0022 L93.0912,165.0022 L93.0912,152.0052 C93.0912,148.2212 91.9782,146.3522 89.0412,146.3522 C85.6142,146.3522 84.1452,148.2662 84.1452,152.9402 L84.1452,165.0022 L77.8242,165.0022 L77.8242,141.9902 Z" id="Fill-5" fill="#FFFFFF"></path>
                <path d="M114.2314,146.1299 C110.0914,146.1299 108.6674,149.6909 108.6674,153.4739 C108.6674,157.0789 110.3144,160.8619 114.2314,160.8619 C118.4154,160.8619 119.6614,157.2129 119.6614,153.4289 C119.6614,149.6909 118.3264,146.1299 114.2314,146.1299 Z M119.7504,162.0649 L119.6614,162.0649 C118.1924,164.5569 115.6114,165.6249 112.6734,165.6249 C105.7304,165.6249 102.3474,159.6609 102.3474,153.2959 C102.3474,147.1089 105.7744,141.3669 112.5404,141.3669 C115.2544,141.3669 117.9254,142.5249 119.3944,144.7949 L119.3504,144.7949 L119.4394,144.7949 L119.4394,133.2219 L125.7594,133.2219 L125.7594,165.0019 L119.7504,165.0019 L119.7504,162.0649 Z" id="Fill-7" fill="#FFFFFF"></path>
                <path d="M145.1191,151.0259 C144.5401,147.8209 143.1611,146.1299 140.0891,146.1299 C136.0831,146.1299 134.9261,149.2459 134.8371,151.0259 L145.1191,151.0259 Z M134.8371,155.0319 C135.0151,159.0379 136.9731,160.8619 140.4901,160.8619 C143.0271,160.8619 145.0751,159.3049 145.4751,157.8799 L151.0391,157.8799 C149.2581,163.3109 145.4751,165.6249 140.2671,165.6249 C133.0121,165.6249 128.5171,160.6399 128.5171,153.5189 C128.5171,146.6189 133.2791,141.3669 140.2671,141.3669 C148.1011,141.3669 151.8851,147.9549 151.4391,155.0319 L134.8371,155.0319 Z" id="Fill-9" fill="#FFFFFF"></path>
                <path d="M171.3779,153.563 C171.3779,149.913 169.9089,146.13 165.8589,146.13 C161.7199,146.13 160.3839,149.824 160.3839,153.563 C160.3839,157.302 161.8089,160.862 165.9029,160.862 C170.0429,160.862 171.3779,157.302 171.3779,153.563 Z M154.2859,141.99 L160.2949,141.99 L160.2949,144.928 L160.3839,144.928 C161.8979,142.48 164.3899,141.367 167.2389,141.367 C174.4489,141.367 177.6989,147.198 177.6989,153.741 C177.6989,159.883 174.3159,165.625 167.5949,165.625 C164.8349,165.625 162.2089,164.423 160.6959,162.153 L160.6069,162.153 L160.6069,173.103 L154.2859,173.103 L154.2859,141.99 Z" id="Fill-11" fill="#FFFFFF"></path>
                <path d="M196.0791,151.0259 C195.5001,147.8209 194.1211,146.1299 191.0491,146.1299 C187.0431,146.1299 185.8861,149.2459 185.7971,151.0259 L196.0791,151.0259 Z M185.7971,155.0319 C185.9751,159.0379 187.9331,160.8619 191.4501,160.8619 C193.9871,160.8619 196.0351,159.3049 196.4351,157.8799 L201.9991,157.8799 C200.2181,163.3109 196.4351,165.6249 191.2271,165.6249 C183.9721,165.6249 179.4771,160.6399 179.4771,153.5189 C179.4771,146.6189 184.2391,141.3669 191.2271,141.3669 C199.0611,141.3669 202.8451,147.9549 202.3991,155.0319 L185.7971,155.0319 Z" id="Fill-13" fill="#FFFFFF"></path>
                <path d="M205.2461,141.9902 L211.2551,141.9902 L211.2551,145.1952 L211.3891,145.1952 C212.9911,142.6132 215.7501,141.3672 218.4211,141.3672 C225.1421,141.3672 226.8331,145.1502 226.8331,150.8472 L226.8331,165.0022 L220.5131,165.0022 L220.5131,152.0052 C220.5131,148.2212 219.4001,146.3522 216.4631,146.3522 C213.0361,146.3522 211.5671,148.2662 211.5671,152.9402 L211.5671,165.0022 L205.2461,165.0022 L205.2461,141.9902 Z" id="Fill-15" fill="#FFFFFF"></path>
                <path d="M241.6533,146.1299 C237.5133,146.1299 236.0893,149.6909 236.0893,153.4739 C236.0893,157.0789 237.7363,160.8619 241.6533,160.8619 C245.8373,160.8619 247.0833,157.2129 247.0833,153.4289 C247.0833,149.6909 245.7483,146.1299 241.6533,146.1299 Z M247.1723,162.0649 L247.0833,162.0649 C245.6143,164.5569 243.0333,165.6249 240.0953,165.6249 C233.1523,165.6249 229.7693,159.6609 229.7693,153.2959 C229.7693,147.1089 233.1963,141.3669 239.9623,141.3669 C242.6763,141.3669 245.3473,142.5249 246.8163,144.7949 L246.7723,144.7949 L246.8613,144.7949 L246.8613,133.2219 L253.1813,133.2219 L253.1813,165.0019 L247.1723,165.0019 L247.1723,162.0649 Z" id="Fill-17" fill="#FFFFFF"></path>
                <path d="M272.541,151.0259 C271.962,147.8209 270.583,146.1299 267.511,146.1299 C263.505,146.1299 262.348,149.2459 262.259,151.0259 L272.541,151.0259 Z M262.259,155.0319 C262.437,159.0379 264.395,160.8619 267.912,160.8619 C270.449,160.8619 272.497,159.3049 272.897,157.8799 L278.461,157.8799 C276.68,163.3109 272.897,165.6249 267.689,165.6249 C260.434,165.6249 255.939,160.6399 255.939,153.5189 C255.939,146.6189 260.701,141.3669 267.689,141.3669 C275.523,141.3669 279.307,147.9549 278.861,155.0319 L262.259,155.0319 Z" id="Fill-19" fill="#FFFFFF"></path>
                <path d="M281.708,141.9902 L287.717,141.9902 L287.717,145.1952 L287.851,145.1952 C289.453,142.6132 292.212,141.3672 294.883,141.3672 C301.604,141.3672 303.295,145.1502 303.295,150.8472 L303.295,165.0022 L296.975,165.0022 L296.975,152.0052 C296.975,148.2212 295.862,146.3522 292.925,146.3522 C289.498,146.3522 288.029,148.2662 288.029,152.9402 L288.029,165.0022 L281.708,165.0022 L281.708,141.9902 Z" id="Fill-21" fill="#FFFFFF"></path>
                <path d="M315.2222,141.9902 L319.8512,141.9902 L319.8512,146.2192 L315.2222,146.2192 L315.2222,157.6132 C315.2222,159.7502 315.7562,160.2832 317.8922,160.2832 C318.5602,160.2832 319.1832,160.2392 319.8512,160.1062 L319.8512,165.0462 C318.7832,165.2242 317.4032,165.2692 316.1572,165.2692 C312.2842,165.2692 308.9012,164.3792 308.9012,159.7942 L308.9012,146.2192 L305.0742,146.2192 L305.0742,141.9902 L308.9012,141.9902 L308.9012,135.0912 L315.2222,135.0912 L315.2222,141.9902 Z" id="Fill-23" fill="#FFFFFF"></path>
                <polygon id="Fill-25" fill="#FFFFFF" points="322.164 165.002 328.484 165.002 328.484 133.222 322.164 133.222"></polygon>
                <path d="M343.9287,167.895 C342.5487,171.59 340.3677,173.103 336.0057,173.103 C334.7157,173.103 333.4247,173.014 332.1337,172.88 L332.1337,167.672 C333.3357,167.762 334.5817,167.939 335.8277,167.895 C338.0087,167.672 338.7207,165.402 338.0087,163.578 L329.9077,141.99 L336.6737,141.99 L341.8817,157.747 L341.9707,157.747 L346.9997,141.99 L353.5427,141.99 L343.9287,167.895 Z" id="Fill-27" fill="#FFFFFF"></path>
                <path d="M377.4429,160.8623 C381.7599,160.8623 383.0509,157.1683 383.0509,153.5183 C383.0509,149.8243 381.7599,146.1303 377.4429,146.1303 C373.1699,146.1303 371.8789,149.8243 371.8789,153.5183 C371.8789,157.1683 373.1699,160.8623 377.4429,160.8623 M377.4429,141.3673 C384.6979,141.3673 389.3719,146.1743 389.3719,153.5183 C389.3719,160.8183 384.6979,165.6253 377.4429,165.6253 C370.2319,165.6253 365.5589,160.8183 365.5589,153.5183 C365.5589,146.1743 370.2319,141.3673 377.4429,141.3673" id="Fill-28" fill="#FFFFFF"></path>
                <path d="M391.6836,141.9902 L397.6926,141.9902 L397.6926,146.2632 L397.7816,146.2632 C398.9386,143.3702 402.0546,141.3672 405.1256,141.3672 C405.5706,141.3672 406.1046,141.4562 406.5056,141.5902 L406.5056,147.4652 C405.9266,147.3312 404.9926,147.2422 404.2356,147.2422 C399.6066,147.2422 398.0046,150.5802 398.0046,154.6312 L398.0046,165.0022 L391.6836,165.0022 L391.6836,141.9902 Z" id="Fill-29" fill="#FFFFFF"></path>
                <path d="M424.2192,153.207 C424.2192,149.468 422.9282,146.13 418.8332,146.13 C415.2732,146.13 413.7152,149.246 413.7152,152.673 C413.7152,155.966 414.9612,159.572 418.8332,159.572 C422.4392,159.572 424.2192,156.5 424.2192,153.207 Z M430.2282,163.533 C430.2282,167.316 428.8922,173.726 418.2992,173.726 C413.7592,173.726 408.4632,171.59 408.1512,166.337 L414.4272,166.337 C415.0062,168.696 416.9192,169.498 419.1452,169.498 C422.6612,169.498 424.2632,167.094 424.2192,163.8 L424.2192,160.773 L424.1302,160.773 C422.7502,163.177 419.9902,164.334 417.2312,164.334 C410.3322,164.334 407.3942,159.082 407.3942,152.762 C407.3942,146.797 410.8222,141.367 417.2762,141.367 C420.3022,141.367 422.6162,142.391 424.1302,145.061 L424.2192,145.061 L424.2192,141.99 L430.2282,141.99 L430.2282,163.533 Z" id="Fill-30" fill="#FFFFFF"></path>
                <path d="M447.8521,153.7407 C446.7841,154.6757 444.5581,154.7197 442.6001,155.0757 C440.6411,155.4767 438.8611,156.1447 438.8611,158.4587 C438.8611,160.8177 440.6861,161.3967 442.7331,161.3967 C447.6741,161.3967 447.8521,157.4797 447.8521,156.0997 L447.8521,153.7407 Z M433.2531,149.0677 C433.6091,143.1477 438.9051,141.3667 444.0681,141.3667 C448.6531,141.3667 454.1721,142.3907 454.1721,147.9097 L454.1721,159.8837 C454.1721,161.9747 454.3951,164.0677 454.9741,165.0017 L448.5641,165.0017 C448.3411,164.2897 448.1641,163.5327 448.1191,162.7767 C446.1161,164.8687 443.1781,165.6247 440.3741,165.6247 C436.0121,165.6247 432.5401,163.4447 432.5401,158.7257 C432.5401,153.5187 436.4571,152.2717 440.3741,151.7377 C444.2471,151.1587 447.8521,151.2927 447.8521,148.7117 C447.8521,145.9957 445.9821,145.5957 443.7571,145.5957 C441.3531,145.5957 439.7951,146.5747 439.5731,149.0677 L433.2531,149.0677 Z" id="Fill-31" fill="#FFFFFF"></path>
                <path d="M458.1763,141.9902 L464.1853,141.9902 L464.1853,145.1952 L464.3193,145.1952 C465.9213,142.6132 468.6803,141.3672 471.3513,141.3672 C478.0723,141.3672 479.7633,145.1502 479.7633,150.8472 L479.7633,165.0022 L473.4433,165.0022 L473.4433,152.0052 C473.4433,148.2212 472.3303,146.3522 469.3933,146.3522 C465.9663,146.3522 464.4973,148.2662 464.4973,152.9402 L464.4973,165.0022 L458.1763,165.0022 L458.1763,141.9902 Z" id="Fill-32" fill="#FFFFFF"></path>
                <path d="M482.966,165.002 L489.286,165.002 L489.286,141.99 L482.966,141.99 L482.966,165.002 Z M482.967,138.43 L489.287,138.43 L489.287,133.222 L482.967,133.222 L482.967,138.43 Z" id="Fill-33" fill="#FFFFFF"></path>
                <polygon id="Fill-34" fill="#FFFFFF" points="491.9565 160.2393 503.9295 146.7533 492.8475 146.7533 492.8475 141.9903 512.2525 141.9903 512.2525 146.7533 500.2805 160.2393 513.0985 160.2393 513.0985 165.0023 491.9565 165.0023"></polygon>
                <path d="M531.0791,151.0259 C530.5011,147.8209 529.1211,146.1299 526.0501,146.1299 C522.0441,146.1299 520.8871,149.2459 520.7981,151.0259 L531.0791,151.0259 Z M520.7981,155.0319 C520.9751,159.0379 522.9341,160.8619 526.4501,160.8619 C528.9871,160.8619 531.0351,159.3049 531.4351,157.8799 L536.9991,157.8799 C535.2191,163.3109 531.4351,165.6249 526.2271,165.6249 C518.9731,165.6249 514.4771,160.6399 514.4771,153.5189 C514.4771,146.6189 519.2401,141.3669 526.2271,141.3669 C534.0611,141.3669 537.8451,147.9549 537.4001,155.0319 L520.7981,155.0319 Z" id="Fill-35" fill="#FFFFFF"></path>
                <path d="M551.1523,146.1299 C547.0123,146.1299 545.5893,149.6909 545.5893,153.4739 C545.5893,157.0789 547.2353,160.8619 551.1523,160.8619 C555.3363,160.8619 556.5823,157.2129 556.5823,153.4289 C556.5823,149.6909 555.2473,146.1299 551.1523,146.1299 Z M556.6723,162.0649 L556.5823,162.0649 C555.1133,164.5569 552.5323,165.6249 549.5943,165.6249 C542.6503,165.6249 539.2673,159.6609 539.2673,153.2959 C539.2673,147.1089 542.6953,141.3669 549.4613,141.3669 C552.1753,141.3669 554.8463,142.5249 556.3153,144.7949 L556.2703,144.7949 L556.3593,144.7949 L556.3593,133.2219 L562.6803,133.2219 L562.6803,165.0019 L556.6723,165.0019 L556.6723,162.0649 Z" id="Fill-36" fill="#FFFFFF"></path>
                <polygon id="Fill-37" fill="#FFFFFF" points="585.7334 139.0972 576.2094 139.0972 576.2094 133.2222 602.2474 133.2222 602.2474 139.0972 592.7214 139.0972 592.7214 165.0022 585.7334 165.0022"></polygon>
                <polygon id="Fill-38" fill="#FFFFFF" points="605.0039 133.2217 628.7729 133.2217 628.7729 139.0967 611.9919 139.0967 611.9919 145.9077 627.3929 145.9077 627.3929 151.3377 611.9919 151.3377 611.9919 159.1267 629.1279 159.1267 629.1279 165.0017 605.0039 165.0017"></polygon>
                <path d="M639.0527,159.1265 L645.2837,159.1265 C649.3337,159.1265 653.2067,156.6345 653.2067,149.6015 C653.2067,143.1915 650.9817,139.0975 644.0367,139.0975 L639.0527,139.0975 L639.0527,159.1265 Z M632.0647,133.2215 L645.7737,133.2215 C654.0077,133.2215 660.1947,138.3855 660.1947,148.9345 C660.1947,158.1475 655.4767,165.0015 645.7737,165.0015 L632.0647,165.0015 L632.0647,133.2215 Z" id="Fill-39" fill="#FFFFFF"></path>
                <path d="M690.458,151.0259 C689.88,147.8209 688.5,146.1299 685.429,146.1299 C681.423,146.1299 680.266,149.2459 680.177,151.0259 L690.458,151.0259 Z M680.177,155.0319 C680.354,159.0379 682.313,160.8619 685.829,160.8619 C688.366,160.8619 690.414,159.3049 690.814,157.8799 L696.378,157.8799 C694.598,163.3109 690.814,165.6249 685.606,165.6249 C678.352,165.6249 673.856,160.6399 673.856,153.5189 C673.856,146.6189 678.619,141.3669 685.606,141.3669 C693.44,141.3669 697.224,147.9549 696.779,155.0319 L680.177,155.0319 Z" id="Fill-40" fill="#FFFFFF"></path>
                <polygon id="Fill-41" fill="#FFFFFF" points="711.4658 165.002 704.4328 165.002 696.5548 141.99 703.1868 141.99 708.0378 157.702 708.1268 157.702 712.9788 141.99 719.2548 141.99"></polygon>
                <path d="M735.5879,151.0259 C735.0099,147.8209 733.6299,146.1299 730.5589,146.1299 C726.5529,146.1299 725.3959,149.2459 725.3069,151.0259 L735.5879,151.0259 Z M725.3069,155.0319 C725.4839,159.0379 727.4429,160.8619 730.9589,160.8619 C733.4959,160.8619 735.5439,159.3049 735.9439,157.8799 L741.5079,157.8799 C739.7279,163.3109 735.9439,165.6249 730.7359,165.6249 C723.4819,165.6249 718.9859,160.6399 718.9859,153.5189 C718.9859,146.6189 723.7489,141.3669 730.7359,141.3669 C738.5699,141.3669 742.3539,147.9549 741.9079,155.0319 L725.3069,155.0319 Z" id="Fill-42" fill="#FFFFFF"></path>
                <path d="M744.7559,141.9902 L750.7649,141.9902 L750.7649,145.1952 L750.8989,145.1952 C752.5009,142.6132 755.2609,141.3672 757.9309,141.3672 C764.6519,141.3672 766.3439,145.1502 766.3439,150.8472 L766.3439,165.0022 L760.0239,165.0022 L760.0239,152.0052 C760.0239,148.2212 758.9099,146.3522 755.9729,146.3522 C752.5449,146.3522 751.0759,148.2662 751.0759,152.9402 L751.0759,165.0022 L744.7559,165.0022 L744.7559,141.9902 Z" id="Fill-43" fill="#FFFFFF"></path>
                <path d="M778.2695,141.9902 L782.8985,141.9902 L782.8985,146.2192 L778.2695,146.2192 L778.2695,157.6132 C778.2695,159.7502 778.8035,160.2832 780.9405,160.2832 C781.6085,160.2832 782.2315,160.2392 782.8985,160.1062 L782.8985,165.0462 C781.8315,165.2242 780.4515,165.2692 779.2045,165.2692 C775.3315,165.2692 771.9495,164.3792 771.9495,159.7942 L771.9495,146.2192 L768.1215,146.2192 L768.1215,141.9902 L771.9495,141.9902 L771.9495,135.0912 L778.2695,135.0912 L778.2695,141.9902 Z" id="Fill-44" fill="#FFFFFF"></path>
                <polygon id="Fill-45" fill="#FF2B06" points="29.9814 28.0801 0.3264 28.0801 0.3264 0.9591 92.2064 0.9591 92.2064 28.0801 62.5624 28.0801 62.5624 106.7751 29.9814 106.7751"></polygon>
                <polygon id="Fill-46" fill="#FF2B06" points="97.27 0.959 186.462 0.959 186.462 28.08 129.872 28.08 129.872 41.266 186.462 41.266 186.462 66.469 129.872 66.469 129.872 79.656 186.477 79.656 186.477 106.775 97.27 106.775"></polygon>
                <path d="M224.5488,79.6558 L237.2988,79.6558 C257.6078,79.6558 260.5768,63.1998 260.5768,53.2598 C260.5768,46.6028 258.4908,28.0798 234.9248,28.0798 L224.5488,28.0798 L224.5488,79.6558 Z M191.9488,0.9588 L245.4488,0.9588 C280.7158,0.9588 293.1788,27.0438 293.1788,53.7118 C293.1788,86.1778 275.9868,106.7758 239.0828,106.7758 L191.9488,106.7758 L191.9488,0.9588 Z" id="Fill-47" fill="#FF2B06"></path>
                <polygon id="Fill-48" fill="#FF2B06" points="340.0244 65.9985 330.0794 49.5065 320.3804 65.9985 296.4944 65.9985 319.1704 32.6525 297.3354 0.7555 321.2304 0.7555 330.0794 16.5225 339.1814 0.7555 363.0694 0.7555 341.2404 32.6525 363.9174 65.9985"></polygon>
            </g>
        </g>
        <path d="M423,36 L436.897796,36 L436.897796,80.9118236 L491.903808,80.9118236 L491.903808,36 L505.801603,36 L505.801603,140.452906 L491.903808,140.452906 L491.903808,92.6152305 L436.897796,92.6152305 L436.897796,140.452906 L423,140.452906 L423,36 Z M542.521042,128.749499 L565.635271,128.749499 C567.195733,128.749499 569.146281,128.62759 571.486974,128.383768 C573.827667,128.139945 576.314616,127.554781 578.947896,126.628257 C581.581175,125.701732 584.190034,124.36073 586.774549,122.60521 C589.359064,120.849691 591.67534,118.460269 593.723447,115.436874 C595.771553,112.413479 597.453901,108.634291 598.770541,104.099198 C600.087181,99.5641056 600.745491,94.0781885 600.745491,87.6412826 C600.745491,81.3994344 600.135945,75.8159899 598.916834,70.8907816 C597.697723,65.9655732 595.698411,61.7718944 592.918838,58.3096192 C590.139265,54.8473441 586.555132,52.2141039 582.166333,50.4098196 C577.777533,48.6055354 572.364762,47.7034068 565.927856,47.7034068 L542.521042,47.7034068 L542.521042,128.749499 Z M528.623246,36 L564.46493,36 C580.557195,36 592.943176,40.0961514 601.623246,48.2885772 C610.303317,56.4810029 614.643287,68.964512 614.643287,85.739479 C614.643287,94.517078 613.668012,102.294889 611.717435,109.073146 C609.766857,115.851403 606.743507,121.556757 602.647295,126.189379 C598.551082,130.822 593.333365,134.357369 586.993988,136.795591 C580.654611,139.233813 573.145,140.452906 564.46493,140.452906 L528.623246,140.452906 L528.623246,36 Z M715,102.709419 C715,116.070875 711.440249,126.091817 704.320641,132.772545 C697.201033,139.453273 687.058182,142.793587 673.891784,142.793587 C660.432798,142.793587 649.924219,139.599564 642.365731,133.211423 C634.807243,126.823281 631.028056,116.656048 631.028056,102.709419 L631.028056,36 L644.925852,36 L644.925852,102.709419 C644.925852,112.072191 647.412801,119.167311 652.386774,123.99499 C657.360746,128.822669 664.529011,131.236473 673.891784,131.236473 C682.766911,131.236473 689.520685,128.822669 694.153307,123.99499 C698.785928,119.167311 701.102204,112.072191 701.102204,102.709419 L701.102204,36 L715,36 L715,102.709419 Z" id="HDU" fill="#FFFFFF"></path>
    </g>
</svg>