<?xml version="1.0" standalone="no"?>
<!DOCTYPE svg PUBLIC "-//W3C//DTD SVG 20010904//EN"
 "http://www.w3.org/TR/2001/REC-SVG-20010904/DTD/svg10.dtd">
<svg version="1.0" xmlns="http://www.w3.org/2000/svg"
 width="1666.000000pt" height="1666.000000pt" viewBox="0 0 1666.000000 1666.000000"
 preserveAspectRatio="xMidYMid meet">
<metadata>
Created by potrace 1.11, written by Peter Selinger 2001-2013
</metadata>
<g transform="translate(0.000000,1666.000000) scale(0.100000,-0.100000)"
fill="#000000" stroke="none">
<path d="M6823 14159 c-34 -10 -66 -46 -102 -114 -12 -22 -26 -47 -31 -55 -5
-8 -55 -94 -110 -190 -55 -96 -104 -182 -109 -190 -6 -8 -32 -53 -59 -100 -27
-47 -75 -130 -106 -185 -32 -55 -67 -116 -78 -135 -76 -132 -841 -1457 -1146
-1985 -102 -176 -193 -335 -203 -352 -10 -18 -69 -119 -130 -225 -61 -106
-119 -206 -129 -223 -9 -16 -68 -118 -130 -225 -94 -162 -113 -202 -113 -235
1 -33 31 -93 179 -349 165 -285 182 -310 218 -326 46 -21 90 -13 122 23 11 13
69 109 129 213 59 104 128 222 152 261 23 40 43 75 43 78 0 3 9 18 19 33 10
15 83 140 161 277 79 138 158 275 176 305 102 173 244 423 244 431 0 5 5 9 10
9 6 0 10 4 10 10 0 5 22 47 49 92 26 46 101 175 166 288 66 113 175 302 243
420 68 118 138 240 154 270 17 30 34 60 38 65 4 6 17 27 29 48 47 83 69 122
211 367 81 140 156 271 167 290 11 19 106 184 212 366 130 224 191 340 191
360 0 18 -23 70 -59 131 -32 55 -61 107 -65 114 -3 8 -57 102 -120 209 -132
227 -156 251 -233 229z"/>
<path d="M7748 12562 c-23 -14 -99 -138 -332 -546 -65 -113 -65 -115 -42 -171
30 -71 -186 -65 2466 -65 2711 0 2436 -10 2491 88 45 80 51 91 194 337 147
254 156 281 107 336 l-30 34 -2414 2 c-2212 1 -2415 0 -2440 -15z"/>
<path d="M10953 10948 c-17 -4 -41 -20 -52 -34 -40 -51 -27 -94 82 -279 16
-27 39 -66 50 -85 11 -19 86 -150 167 -290 81 -140 157 -271 167 -290 11 -19
44 -75 72 -123 28 -49 51 -93 51 -98 0 -5 5 -9 10 -9 6 0 10 -4 10 -10 0 -5
27 -55 60 -111 33 -55 60 -102 60 -104 0 -3 95 -168 130 -225 5 -8 34 -60 66
-115 31 -55 86 -148 120 -208 35 -59 64 -109 64 -111 0 -3 23 -41 50 -86 28
-45 50 -83 50 -86 0 -2 27 -49 60 -105 33 -55 60 -103 60 -105 0 -2 11 -21 23
-42 21 -33 145 -245 200 -342 11 -19 78 -136 150 -260 71 -124 141 -245 155
-269 13 -24 95 -165 181 -315 87 -149 161 -278 164 -286 30 -65 177 -297 198
-312 24 -18 47 -19 340 -19 463 -1 424 -3 459 29 20 17 33 40 37 64 5 35 -18
88 -94 213 -7 11 -15 27 -19 35 -4 8 -17 31 -29 50 -12 19 -48 80 -79 135 -72
125 -51 89 -213 369 -76 131 -148 257 -161 280 -13 22 -41 70 -62 106 -21 36
-114 198 -208 360 -144 251 -388 672 -727 1260 -43 74 -96 167 -118 205 -49
85 -204 354 -217 375 -18 30 -175 305 -179 313 -2 5 -32 56 -67 114 -35 58
-64 108 -64 112 0 3 -11 22 -23 41 -13 19 -36 58 -52 85 -58 106 -89 153 -109
166 -17 11 -90 14 -376 15 -195 0 -369 -3 -387 -8z"/>
<path d="M2591 10014 c-16 -7 -37 -24 -47 -39 -31 -47 -22 -84 46 -201 34 -60
74 -129 88 -154 30 -54 339 -589 352 -610 13 -21 117 -202 263 -455 44 -77 97
-169 118 -204 22 -34 39 -66 39 -70 0 -3 11 -22 23 -41 13 -19 37 -60 54 -90
25 -44 175 -306 530 -918 10 -18 74 -129 143 -248 69 -120 140 -242 158 -273
17 -31 43 -76 57 -101 14 -25 30 -52 35 -60 11 -17 165 -283 202 -350 87 -155
264 -457 275 -468 34 -35 72 -39 429 -37 320 1 353 2 378 19 32 20 57 74 51
107 -3 12 -48 99 -102 193 -121 211 -105 183 -189 328 -40 68 -80 139 -90 158
-11 19 -22 37 -26 38 -5 2 -8 8 -8 12 0 5 -36 70 -80 146 -44 75 -80 138 -80
140 0 3 -11 21 -23 42 -13 20 -42 69 -64 107 -277 479 -340 588 -367 635 -35
62 -151 265 -179 312 -80 135 -396 684 -420 728 -16 30 -34 60 -38 66 -5 6
-26 42 -47 80 -21 38 -78 136 -125 217 -48 82 -87 150 -87 152 0 2 -17 32 -38
66 -22 35 -50 84 -64 109 -14 25 -73 127 -131 228 -59 100 -116 199 -127 220
-76 138 -117 199 -144 215 -31 17 -725 18 -765 1z"/>
<path d="M11787 7384 c-25 -14 -66 -77 -187 -289 -34 -60 -86 -150 -115 -200
-43 -73 -600 -1038 -673 -1166 -11 -19 -61 -106 -112 -194 -86 -148 -441 -762
-480 -830 -23 -41 -79 -136 -90 -155 -20 -34 -115 -198 -138 -240 -13 -25 -39
-70 -57 -100 -18 -30 -75 -129 -127 -220 -52 -91 -169 -293 -260 -450 -91
-157 -170 -296 -177 -309 -18 -34 -16 -82 6 -118 19 -34 140 -244 159 -278 28
-51 55 -97 91 -156 21 -35 47 -81 58 -103 46 -88 126 -113 184 -58 16 15 88
128 159 252 71 124 139 241 151 260 11 19 24 42 28 50 4 8 20 38 36 65 30 51
198 341 234 405 11 19 111 193 223 385 111 193 227 393 257 445 30 52 58 102
63 110 12 19 165 283 214 370 20 36 41 72 46 80 5 8 24 40 41 70 111 192 272
473 369 640 62 107 118 204 124 215 12 22 232 401 246 425 25 40 195 338 207
362 26 51 19 82 -46 193 -34 58 -71 123 -83 143 -118 212 -223 381 -242 392
-34 18 -79 19 -109 4z"/>
<path d="M4395 4870 c-28 -11 -58 -47 -91 -105 -15 -27 -82 -145 -150 -261
-181 -313 -179 -307 -149 -364 33 -65 -164 -60 2470 -60 2188 0 2399 1 2424
16 24 14 89 110 141 209 9 17 51 89 93 162 42 72 86 149 99 170 69 121 74 150
29 203 l-29 35 -2408 2 c-1325 1 -2418 -2 -2429 -7z"/>
</g>
</svg>
